<?xml version="1.0" standalone="no"?>
<!DOCTYPE svg PUBLIC "-//W3C//DTD SVG 20010904//EN"
 "http://www.w3.org/TR/2001/REC-SVG-20010904/DTD/svg10.dtd">
<svg version="1.0" xmlns="http://www.w3.org/2000/svg"
 width="480.000000pt" height="480.000000pt" viewBox="0 0 480.000000 480.000000"
 preserveAspectRatio="xMidYMid meet">

<g transform="translate(0.000000,480.000000) scale(0.100000,-0.100000)"
fill="#000000" stroke="none">
<path d="M1044 4436 c-351 -67 -578 -249 -680 -548 -82 -241 -78 -606 10 -883
36 -112 88 -197 181 -291 109 -110 238 -180 371 -200 l46 -7 -6 -38 c-11 -70
-46 -145 -133 -291 -81 -135 -133 -241 -133 -271 0 -26 272 16 383 59 11 4 15
-24 21 -148 20 -421 130 -723 340 -934 97 -97 169 -132 302 -145 54 -6 150
-19 212 -30 63 -10 133 -19 156 -19 54 0 136 24 169 50 14 11 28 20 31 20 3 0
3 -31 0 -69 l-7 -69 63 -46 c35 -26 65 -45 67 -42 2 2 -17 60 -42 129 -43 117
-45 127 -32 153 l14 27 -66 33 c-58 28 -138 81 -234 155 l-28 21 21 -51 c11
-29 20 -53 20 -56 0 -2 26 -19 58 -39 31 -19 81 -52 110 -74 64 -48 60 -51
-89 -59 -142 -8 -471 37 -561 76 -79 34 -217 200 -293 351 -101 202 -135 358
-142 658 -3 122 -8 222 -10 222 -3 0 -30 -16 -61 -35 -68 -41 -142 -68 -237
-85 -110 -19 -112 -18 -72 65 19 39 60 112 91 163 99 163 135 245 152 340 25
150 86 303 165 418 89 129 261 273 389 325 51 20 73 22 315 24 143 1 277 7
297 12 33 10 39 8 60 -14 34 -36 82 -63 183 -104 l90 -36 5 -59 5 -59 19 28
c11 16 21 52 24 81 l4 53 65 28 c57 25 72 37 115 96 l49 68 78 -33 c135 -58
154 -72 253 -178 92 -100 103 -108 226 -172 165 -86 204 -119 347 -289 6 -7
32 -57 59 -112 26 -55 70 -132 97 -172 l49 -72 -38 -13 c-89 -31 -302 -9 -407
42 -41 20 -164 111 -256 190 -29 25 -50 38 -47 30 18 -42 97 -212 100 -216 9
-9 300 -94 372 -108 41 -9 114 -16 161 -16 72 0 94 4 136 26 l51 25 -36 42
c-46 55 -123 195 -152 277 l-23 65 96 12 c184 24 299 78 418 197 191 192 253
453 215 906 -10 120 -5 106 -106 316 -85 179 -304 304 -528 304 -114 0 -195
-22 -311 -85 -120 -64 -194 -80 -327 -70 -51 4 -88 3 -88 -2 0 -14 54 -96 76
-115 36 -32 80 -40 294 -53 325 -21 391 -50 460 -207 36 -82 46 -197 27 -326
-18 -122 -38 -173 -92 -227 -38 -37 -126 -86 -186 -103 l-36 -10 -109 127
c-279 324 -434 454 -574 482 -91 18 -243 6 -387 -30 -135 -34 -134 -34 -223
19 -114 67 -173 84 -300 84 -103 -1 -125 -4 -212 -34 -197 -66 -350 -188 -475
-377 -96 -145 -139 -187 -242 -237 -73 -34 -94 -40 -151 -40 -116 0 -169 57
-211 224 -31 125 -11 314 47 436 29 62 121 152 193 188 140 71 303 88 546 56
241 -31 336 -14 410 73 55 64 53 66 -60 87 -214 39 -335 65 -470 102 -126 35
-168 42 -260 44 -63 2 -140 -3 -181 -10z m104 -82 c2 -1 0 -31 -5 -65 l-8 -63
-103 -27 c-140 -36 -237 -85 -309 -157 l-58 -59 -97 6 c-53 3 -100 9 -104 13
-12 13 77 137 143 197 69 64 193 132 283 156 39 10 83 12 155 8 55 -3 102 -7
103 -9z m2682 -97 c0 -2 -12 -14 -27 -28 l-28 -24 24 28 c23 25 31 32 31 24z
m-287 -54 c-18 -2 -48 -2 -65 0 -18 2 -4 4 32 4 36 0 50 -2 33 -4z m-1215
-406 c39 -21 72 -41 72 -45 0 -5 -34 -28 -75 -52 -92 -52 -135 -56 -192 -18
-33 21 -113 122 -113 142 0 8 71 14 155 12 70 -2 89 -7 153 -39z m654 -18 c77
-26 131 -62 197 -134 63 -69 90 -116 40 -68 -37 35 -201 111 -314 145 -42 13
-98 22 -142 22 -39 1 -70 2 -68 4 11 12 156 51 188 52 21 0 65 -9 99 -21z
m-452 -284 c0 -14 -13 -39 -29 -57 -25 -27 -33 -31 -48 -22 -30 18 -27 49 7
78 41 34 70 35 70 1z m-165 -85 c33 -81 45 -94 45 -51 l0 33 39 -31 c45 -36
57 -38 66 -12 3 11 31 42 61 70 l54 50 26 -26 c20 -20 33 -24 60 -21 l35 4 -7
-40 c-3 -23 -8 -43 -9 -44 -2 -2 -25 1 -51 6 -46 10 -49 9 -87 -24 -22 -18
-55 -37 -74 -40 -27 -5 -33 -11 -33 -31 0 -23 -3 -25 -32 -19 -94 19 -174 156
-142 241 9 22 18 11 49 -65z"/>
<path d="M2942 3028 c-36 -147 -37 -166 -6 -244 19 -50 49 -97 99 -157 84
-102 116 -158 160 -281 37 -102 21 -91 157 -110 l47 -7 -29 -46 c-16 -25 -34
-67 -39 -94 -13 -61 -14 -149 -2 -149 5 0 46 18 91 39 45 22 86 41 91 43 8 3
16 42 33 166 l5 32 -67 2 -67 1 65 6 c62 6 64 7 40 20 -14 8 -57 15 -101 16
-119 3 -150 25 -210 150 -65 137 -119 218 -196 297 -66 67 -66 67 -49 92 9 14
20 26 25 26 12 0 35 -30 50 -65 l13 -29 44 69 c24 39 44 75 44 80 0 6 20 -12
44 -40 l44 -50 -8 44 c-4 24 -14 48 -21 53 -13 9 -127 5 -179 -7 -17 -3 -34 2
-53 18 l-28 24 15 88 c9 49 14 90 12 92 -2 2 -13 -34 -24 -79z"/>
<path d="M2101 2863 c-17 -64 -32 -135 -29 -138 6 -7 108 -44 108 -41 0 3 -16
32 -36 66 -20 33 -34 63 -31 66 3 3 32 8 64 11 l58 5 27 -44 c15 -25 36 -52
46 -61 17 -16 20 -15 45 11 22 23 73 140 65 147 -2 1 -71 6 -155 9 l-152 7
-10 -38z"/>
<path d="M1855 2813 c-10 -41 -90 -197 -137 -266 -61 -91 -159 -188 -280 -279
-60 -44 -108 -82 -108 -84 0 -8 98 36 156 70 67 39 159 108 186 141 10 11 43
55 75 98 l57 77 36 -105 c42 -121 55 -141 46 -70 -17 142 -26 298 -20 368 7
78 2 100 -11 50z"/>
<path d="M3176 2738 c-22 -30 -20 -38 7 -38 28 0 47 17 47 42 0 26 -35 23 -54
-4z"/>
<path d="M2260 2661 c25 -9 107 -15 99 -7 -2 2 -31 6 -64 9 -39 4 -51 3 -35
-2z"/>
<path d="M2568 2326 c-57 -21 -90 -45 -84 -63 3 -8 6 -38 7 -66 l0 -52 14 50
c18 68 60 105 119 105 88 0 279 -69 415 -151 70 -42 57 -21 -17 30 -206 140
-347 185 -454 147z"/>
<path d="M3560 2103 c0 -81 0 -82 -32 -104 -88 -61 -258 -192 -258 -199 0 -5
45 -50 100 -100 55 -51 100 -96 100 -100 0 -3 -17 -15 -37 -25 -33 -15 -61
-18 -205 -16 -159 2 -175 0 -322 -34 -86 -19 -178 -35 -205 -35 -48 0 -51 2
-111 67 -34 38 -107 129 -163 203 -119 160 -122 164 -105 125 45 -103 157
-263 253 -360 91 -92 147 -103 307 -60 135 36 290 52 384 38 41 -6 77 -12 79
-15 2 -2 5 -54 6 -115 3 -111 4 -113 32 -134 l29 -21 -6 38 c-3 22 -8 71 -11
110 l-7 71 61 43 c48 34 61 48 61 69 0 50 -21 99 -59 142 l-38 43 20 33 c10
18 54 66 97 106 78 72 78 72 80 127 5 105 1 128 -25 157 l-24 28 -1 -82z"/>
<path d="M2643 2136 c3 -8 11 -33 18 -56 l13 -42 55 5 c37 3 66 0 86 -10 l30
-14 -30 26 c-33 28 -156 105 -169 105 -5 0 -6 -6 -3 -14z"/>
<path d="M1550 2021 c0 -67 28 -158 77 -253 l45 -88 42 1 41 0 -41 19 c-35 15
-44 27 -67 81 -15 35 -41 111 -58 169 -17 58 -33 107 -35 109 -2 2 -4 -15 -4
-38z"/>
<path d="M1786 1657 c11 -14 36 -45 56 -69 l37 -44 -23 -110 -23 -110 121 -64
c129 -68 135 -61 20 26 -63 47 -104 99 -104 131 0 5 15 33 34 63 24 39 32 59
25 70 -24 41 -88 101 -123 116 l-39 15 19 -24z"/>
<path d="M2843 1261 c-61 -5 -77 -10 -99 -33 l-27 -27 38 -43 c36 -40 47 -45
145 -70 58 -15 108 -28 113 -28 4 0 7 18 7 39 l0 39 73 16 c39 9 104 22 142
28 39 6 74 14 78 18 4 4 -24 21 -63 38 -68 31 -74 32 -203 30 -72 -1 -165 -4
-204 -7z"/>
<path d="M3053 993 c-13 -23 -23 -55 -23 -73 0 -25 -14 -47 -67 -105 -36 -41
-79 -93 -95 -116 -38 -56 -74 -176 -82 -269 l-6 -75 18 55 c47 139 113 253
218 376 57 67 68 104 62 198 l-3 49 -22 -40z"/>
</g>
</svg>
