<svg xmlns="http://www.w3.org/2000/svg" height="40" viewBox="0 96 960 960" width="40"><path d="M160.257 875.999q-24.282 0-42.269-17.987t-17.987-42.269V353.951q0-24.282 19.141-43.423 19.141-19.141 43.423-19.141H425.54l54.87 54.871h317.025q21.974 0 38.999 14.91 17.026 14.909 20.103 35.345h-397.28l-54.871-54.871H162.565q-5.385 0-8.847 3.462-3.462 3.462-3.462 8.847v459.484q0 4.231 2.116 6.924 2.115 2.692 5.577 4.615l98.59-358.205h673.076l-101.051 364.82q-6.026 21.718-22.064 33.064t-38.551 11.346H160.257Zm50.383-50.255h567.566l83.462-308.72H294.102l-83.462 308.72Zm0 0 83.462-308.72-83.462 308.72Zm-60.384-429.231v-54.871 54.871Z"/></svg>