<svg xmlns="http://www.w3.org/2000/svg" height="40" viewBox="0 96 960 960" width="40"><path d="m517.181 941.382-6.154-100.512h-48.463q-134.204 0-228.383-94.179-94.18-94.179-94.18-228.383 0-133.948 94.385-228.127 94.384-94.18 228.999-94.18 66.769 0 124.268 24.552 57.5 24.551 100.372 67.961 42.871 43.41 67.422 101.858 24.552 58.449 24.552 126.705 0 63.615-18.795 124.909-18.795 61.295-53.269 116.281-34.474 54.987-83.088 101.59-48.615 46.602-107.666 81.525Zm45.383-92.972q76.282-64.205 121.731-151.064t45.449-180.269q0-116.436-76.577-193.628-76.577-77.193-189.782-77.193-114.282 0-193.706 79.423-79.423 79.424-79.423 192.629 0 113.461 79.423 192.884 79.424 79.423 192.885 79.423h100v57.795Zm-98.615-112.821q14.282 0 24.141-9.859 9.858-9.859 9.858-23.884t-9.858-23.884q-9.859-9.859-24.141-9.859-14.026 0-23.884 9.859-9.859 9.859-9.859 23.884t9.859 23.884q9.858 9.859 23.884 9.859Zm-22.154-126.205h42.82q.769-24.743 9.013-40.256 8.244-15.513 36.526-43.795 21.82-21.82 32.448-42.153 10.628-20.334 10.628-44.77 0-44.179-30.294-71.115-30.295-26.936-76.885-26.936-39.461 0-68.833 21.231-29.371 21.231-43.269 54.256l39.589 15.897q9.513-21.846 26.923-35.359 17.411-13.512 44.103-13.512 32.206 0 48.616 16.525 16.41 16.526 16.41 39.167 0 19.616-10.602 36.282-10.603 16.667-32.526 39.001-28.128 26.615-36.397 45.256-8.27 18.641-8.27 50.281ZM460 547.462Z"/></svg>