<svg xmlns="http://www.w3.org/2000/svg" height="40" viewBox="0 96 960 960" width="40"><path d="M819.999 382.975v470.46q0 25.788-18.388 44.176t-44.176 18.388h-554.87q-25.788 0-44.176-18.388t-18.388-44.176v-554.87q0-25.788 18.388-44.176t44.176-18.388h470.46l146.974 146.974Zm-50.255 22.153L650.872 286.256H202.565q-5.385 0-8.847 3.462-3.462 3.462-3.462 8.847v554.87q0 5.385 3.462 8.847 3.462 3.462 8.847 3.462h554.87q5.385 0 8.847-3.462 3.462-3.462 3.462-8.847V405.128ZM479.843 784.203q38.203 0 65.256-26.896 27.053-26.896 27.053-65.099 0-38.204-26.896-65.257-26.896-27.053-65.099-27.053t-65.256 26.896q-27.053 26.897-27.053 65.1 0 38.203 26.896 65.256 26.896 27.053 65.099 27.053Zm-227.842-304.46h327.382V348.001H252.001v131.742Zm-61.745-74.615v460.616V286.256v118.872Z"/></svg>