<svg xmlns="http://www.w3.org/2000/svg" height="40" viewBox="0 96 960 960" width="40"><path d="M480 699.795q34.897 0 59.141-24.123 24.244-24.124 24.244-59.262 0-34.897-24.244-59.141-24.244-24.243-59.141-24.243t-59.141 24.243q-24.244 24.244-24.244 59.269 0 35.026 24.244 59.142 24.244 24.115 59.141 24.115Zm233.538 205.949q3.462 0 6.539-2.308 3.077-2.308 5-6.155l-169.436-169.18q-18.231 11.795-36.419 16.872-18.187 5.077-39.34 5.077-55.734 0-94.628-38.894T346.36 616.41q0-55.852 38.894-94.746 38.894-38.893 94.746-38.893t94.746 38.893q38.894 38.894 38.894 94.746 0 21.753-6.141 40.607-6.142 18.854-17.962 34.675l140.207 140.719V439.333l-164.77-193.077H242.565q-4.616 0-8.462 3.847-3.847 3.846-3.847 8.462v634.87q0 4.616 3.847 8.462 3.846 3.847 8.462 3.847h470.973Zm-470.973 50.255q-25.788 0-44.176-18.388t-18.388-44.176v-634.87q0-25.788 18.388-44.176t44.176-18.388h344.409l193.025 226.512v470.922q0 25.788-18.388 44.176t-44.176 18.388h-474.87ZM505.127 590.82Z"/></svg>